<svg xmlns="http://www.w3.org/2000/svg" viewBox="0 0 1200 800" role="img" aria-labelledby="title desc">
  <title id="title">Marché doux</title>
  <desc id="desc">Une scène de marché avec des étals, des fruits et des façades colorées.</desc>
  <rect width="1200" height="800" fill="#cce8f0"/>
  <path d="M0 455 L1200 375 L1200 800 L0 800 Z" fill="#8ac7b4"/>
  <rect x="65" y="150" width="245" height="270" rx="8" fill="#fff4d8"/>
  <rect x="88" y="188" width="78" height="96" rx="6" fill="#094D70"/>
  <rect x="190" y="188" width="78" height="96" rx="6" fill="#094D70"/>
  <path d="M65 150 L188 70 L310 150 Z" fill="#e87961"/>
  <rect x="820" y="112" width="260" height="310" rx="8" fill="#f6d08a"/>
  <path d="M820 112 L950 50 L1080 112 Z" fill="#094D70"/>
  <rect x="866" y="174" width="78" height="100" rx="6" fill="#fffdf7"/>
  <rect x="970" y="174" width="78" height="100" rx="6" fill="#fffdf7"/>
  <path d="M160 460 L315 300 L470 460 Z" fill="#f2b84b"/>
  <path d="M315 300 L470 460 L160 460 Z" fill="none" stroke="#094D70" stroke-width="10"/>
  <rect x="178" y="452" width="294" height="52" fill="#094D70"/>
  <rect x="198" y="504" width="252" height="122" rx="8" fill="#fffdf7"/>
  <rect x="225" y="550" width="54" height="54" rx="8" fill="#e87961"/>
  <rect x="296" y="540" width="54" height="64" rx="8" fill="#8ac7b4"/>
  <rect x="367" y="552" width="54" height="52" rx="8" fill="#f2b84b"/>
  <path d="M665 430 L785 305 L905 430 Z" fill="#e87961"/>
  <path d="M785 305 L905 430 L665 430 Z" fill="none" stroke="#094D70" stroke-width="10"/>
  <rect x="680" y="425" width="292" height="54" fill="#094D70"/>
  <rect x="700" y="479" width="250" height="126" rx="8" fill="#fffdf7"/>
  <g fill="#2f8f67">
    <circle cx="730" cy="540" r="20"/>
    <circle cx="775" cy="540" r="20"/>
    <circle cx="820" cy="540" r="20"/>
    <circle cx="865" cy="540" r="20"/>
    <circle cx="910" cy="540" r="20"/>
  </g>
  <g fill="#e87961">
    <circle cx="750" cy="580" r="19"/>
    <circle cx="795" cy="580" r="19"/>
    <circle cx="840" cy="580" r="19"/>
    <circle cx="885" cy="580" r="19"/>
  </g>
  <path d="M0 650 C155 590 280 662 418 615 C565 565 730 678 910 610 C1015 570 1100 592 1200 548 L1200 800 L0 800 Z" fill="#fffdf7" opacity=".75"/>
  <rect x="500" y="503" width="90" height="118" rx="42" fill="#20303a"/>
  <circle cx="545" cy="458" r="46" fill="#e7b889"/>
  <path d="M505 450 C515 405 580 400 596 450 C560 430 535 430 505 450 Z" fill="#094D70"/>
  <path d="M480 640 C520 610 575 610 618 640" fill="none" stroke="#20303a" stroke-width="14" stroke-linecap="round"/>
  <path d="M103 690 C240 650 340 704 462 666" fill="none" stroke="#094D70" stroke-width="12" stroke-linecap="round" opacity=".34"/>
  <path d="M725 700 C870 655 992 706 1120 650" fill="none" stroke="#094D70" stroke-width="12" stroke-linecap="round" opacity=".34"/>
</svg>
